{
	"asset":{
		"generator":"Khronos glTF Blender I/O v4.0.44",
		"version":"2.0"
	},
	"extensionsUsed":[
		"KHR_materials_emissive_strength"
	],
	"scene":0,
	"scenes":[
		{
			"name":"Scene",
			"nodes":[
				0
			]
		}
	],
	"nodes":[
		{
			"mesh":0,
			"name":"Sphere.006",
			"scale":[
				0.10449213534593582,
				0.10449213534593582,
				0.10449213534593582
			],
			"translation":[
				-0.015418469905853271,
				0.930398166179657,
				-0.03680776059627533
			]
		}
	],
	"animations":[
		{
			"channels":[
				{
					"sampler":0,
					"target":{
						"node":0,
						"path":"translation"
					}
				},
				{
					"sampler":1,
					"target":{
						"node":0,
						"path":"rotation"
					}
				},
				{
					"sampler":2,
					"target":{
						"node":0,
						"path":"scale"
					}
				}
			],
			"name":"SphereAction.010",
			"samplers":[
				{
					"input":15,
					"interpolation":"LINEAR",
					"output":16
				},
				{
					"input":15,
					"interpolation":"LINEAR",
					"output":17
				},
				{
					"input":15,
					"interpolation":"LINEAR",
					"output":18
				}
			]
		}
	],
	"materials":[
		{
			"doubleSided":true,
			"emissiveFactor":[
				1,
				0.05325095355510712,
				0.04164686053991318
			],
			"extensions":{
				"KHR_materials_emissive_strength":{
					"emissiveStrength":10
				}
			},
			"name":"\u0e27\u0e31\u0e2a\u0e14\u0e38.007",
			"pbrMetallicRoughness":{
				"baseColorFactor":[
					0.8000315427780151,
					0.017247602343559265,
					0.019857335835695267,
					1
				],
				"metallicFactor":0,
				"roughnessFactor":0.5
			}
		},
		{
			"doubleSided":true,
			"emissiveFactor":[
				0.4999999701976776,
				0.4999999701976776,
				0.4999999701976776
			],
			"emissiveTexture":{
				"index":0
			},
			"name":"GolemNew",
			"pbrMetallicRoughness":{
				"baseColorTexture":{
					"index":1
				},
				"metallicFactor":0.30181819200515747,
				"roughnessFactor":0.05454545468091965
			}
		},
		{
			"doubleSided":true,
			"emissiveFactor":[
				1,
				0.11441091883126016,
				0.06478765625096841
			],
			"extensions":{
				"KHR_materials_emissive_strength":{
					"emissiveStrength":4.000677108764648
				}
			},
			"name":"\u0e27\u0e31\u0e2a\u0e14\u0e38.009",
			"pbrMetallicRoughness":{
				"baseColorFactor":[
					0.7992377281188965,
					0.7604914903640747,
					0.0221724770963192,
					1
				],
				"metallicFactor":0,
				"roughnessFactor":0.5
			}
		},
		{
			"doubleSided":true,
			"emissiveFactor":[
				1,
				0.11441091883126016,
				0.06478765625096841
			],
			"extensions":{
				"KHR_materials_emissive_strength":{
					"emissiveStrength":4.000677108764648
				}
			},
			"name":"\u0e27\u0e31\u0e2a\u0e14\u0e38.008",
			"pbrMetallicRoughness":{
				"baseColorFactor":[
					0.7992377281188965,
					0.7604914903640747,
					0.0221724770963192,
					1
				],
				"metallicFactor":0,
				"roughnessFactor":0.5
			}
		}
	],
	"meshes":[
		{
			"name":"Sphere.010",
			"primitives":[
				{
					"attributes":{
						"POSITION":0,
						"NORMAL":1,
						"TEXCOORD_0":2
					},
					"indices":3,
					"material":0
				},
				{
					"attributes":{
						"POSITION":4,
						"NORMAL":5,
						"TEXCOORD_0":6
					},
					"indices":7,
					"material":1
				},
				{
					"attributes":{
						"POSITION":8,
						"NORMAL":9,
						"TEXCOORD_0":10
					},
					"indices":11,
					"material":2
				},
				{
					"attributes":{
						"POSITION":12,
						"NORMAL":13,
						"TEXCOORD_0":14
					},
					"indices":11,
					"material":3
				}
			]
		}
	],
	"textures":[
		{
			"sampler":0,
			"source":0
		},
		{
			"sampler":0,
			"source":1
		}
	],
	"images":[
		{
			"mimeType":"image/jpeg",
			"name":"cracked_pattern_texture_background",
			"uri":"cracked_pattern_texture_background.jpg"
		},
		{
			"mimeType":"image/png",
			"name":"cracked_pattern_texture_background",
			"uri":"cracked_pattern_texture_background.png"
		}
	],
	"accessors":[
		{
			"bufferView":0,
			"componentType":5126,
			"count":559,
			"max":[
				0.9999995827674866,
				0.9999979734420776,
				0.9999992251396179
			],
			"min":[
				-0.999998927116394,
				-1.0000017881393433,
				-0.9999998807907104
			],
			"type":"VEC3"
		},
		{
			"bufferView":1,
			"componentType":5126,
			"count":559,
			"type":"VEC3"
		},
		{
			"bufferView":2,
			"componentType":5126,
			"count":559,
			"type":"VEC2"
		},
		{
			"bufferView":3,
			"componentType":5123,
			"count":2880,
			"type":"SCALAR"
		},
		{
			"bufferView":4,
			"componentType":5126,
			"count":6545,
			"max":[
				13.878681182861328,
				8.338685035705566,
				5.023660182952881
			],
			"min":[
				-13.830495834350586,
				-10.136914253234863,
				-5.945030689239502
			],
			"type":"VEC3"
		},
		{
			"bufferView":5,
			"componentType":5126,
			"count":6545,
			"type":"VEC3"
		},
		{
			"bufferView":6,
			"componentType":5126,
			"count":6545,
			"type":"VEC2"
		},
		{
			"bufferView":7,
			"componentType":5123,
			"count":38472,
			"type":"SCALAR"
		},
		{
			"bufferView":8,
			"componentType":5126,
			"count":6144,
			"max":[
				0.8957748413085938,
				4.53463077545166,
				4.053240776062012
			],
			"min":[
				0.30140215158462524,
				3.971334934234619,
				3.7322816848754883
			],
			"type":"VEC3"
		},
		{
			"bufferView":9,
			"componentType":5126,
			"count":6144,
			"type":"VEC3"
		},
		{
			"bufferView":10,
			"componentType":5126,
			"count":6144,
			"type":"VEC2"
		},
		{
			"bufferView":11,
			"componentType":5123,
			"count":9216,
			"type":"SCALAR"
		},
		{
			"bufferView":12,
			"componentType":5126,
			"count":6144,
			"max":[
				-0.14366628229618073,
				4.53463077545166,
				4.062648773193359
			],
			"min":[
				-0.738038957118988,
				3.971334934234619,
				3.741689682006836
			],
			"type":"VEC3"
		},
		{
			"bufferView":13,
			"componentType":5126,
			"count":6144,
			"type":"VEC3"
		},
		{
			"bufferView":14,
			"componentType":5126,
			"count":6144,
			"type":"VEC2"
		},
		{
			"bufferView":15,
			"componentType":5126,
			"count":1,
			"max":[
				0
			],
			"min":[
				0
			],
			"type":"SCALAR"
		},
		{
			"bufferView":16,
			"componentType":5126,
			"count":1,
			"type":"VEC3"
		},
		{
			"bufferView":17,
			"componentType":5126,
			"count":1,
			"type":"VEC4"
		},
		{
			"bufferView":18,
			"componentType":5126,
			"count":1,
			"type":"VEC3"
		}
	],
	"bufferViews":[
		{
			"buffer":0,
			"byteLength":6708,
			"byteOffset":0,
			"target":34962
		},
		{
			"buffer":0,
			"byteLength":6708,
			"byteOffset":6708,
			"target":34962
		},
		{
			"buffer":0,
			"byteLength":4472,
			"byteOffset":13416,
			"target":34962
		},
		{
			"buffer":0,
			"byteLength":5760,
			"byteOffset":17888,
			"target":34963
		},
		{
			"buffer":0,
			"byteLength":78540,
			"byteOffset":23648,
			"target":34962
		},
		{
			"buffer":0,
			"byteLength":78540,
			"byteOffset":102188,
			"target":34962
		},
		{
			"buffer":0,
			"byteLength":52360,
			"byteOffset":180728,
			"target":34962
		},
		{
			"buffer":0,
			"byteLength":76944,
			"byteOffset":233088,
			"target":34963
		},
		{
			"buffer":0,
			"byteLength":73728,
			"byteOffset":310032,
			"target":34962
		},
		{
			"buffer":0,
			"byteLength":73728,
			"byteOffset":383760,
			"target":34962
		},
		{
			"buffer":0,
			"byteLength":49152,
			"byteOffset":457488,
			"target":34962
		},
		{
			"buffer":0,
			"byteLength":18432,
			"byteOffset":506640,
			"target":34963
		},
		{
			"buffer":0,
			"byteLength":73728,
			"byteOffset":525072,
			"target":34962
		},
		{
			"buffer":0,
			"byteLength":73728,
			"byteOffset":598800,
			"target":34962
		},
		{
			"buffer":0,
			"byteLength":49152,
			"byteOffset":672528,
			"target":34962
		},
		{
			"buffer":0,
			"byteLength":4,
			"byteOffset":721680
		},
		{
			"buffer":0,
			"byteLength":12,
			"byteOffset":721684
		},
		{
			"buffer":0,
			"byteLength":16,
			"byteOffset":721696
		},
		{
			"buffer":0,
			"byteLength":12,
			"byteOffset":721712
		}
	],
	"samplers":[
		{
			"magFilter":9729,
			"minFilter":9987
		}
	],
	"buffers":[
		{
			"byteLength":721724,
			"uri":"golem_clean.bin"
		}
	]
}
